# xmcd
#
# Track frame offsets:
#	150
#	17326
#	39152
#	53552
#	75903
#	91504
#	107030
#	123756
#	141007
#	162158
#
# Disc length: 2413 seconds
# Revision: 0
# Processed by: cddbd v1.5.2PL0 Copyright (c) Steve Scherf et al.
# Submitted via: dBpowerAMP V12.0
#
DISCID=5c096b0a
DTITLE=Balsam Range - Mountain Overture
DYEAR=2018
DGENRE=Bluegrass
TTITLE0=Trains I Missed
TTITLE1=Blue Mountain
TTITLE2=Eldorado Blue
TTITLE3=From a Georgia Battlefield
TTITLE4=Any Old Road (Will Take You There)
TTITLE5=Jack Diamond
TTITLE6=Matthew
TTITLE7=Last Train to Kitty Hawk
TTITLE8=I Hear the Mountains
TTITLE9=Burning Georgia Down
EXTD=
EXTT0=
EXTT1=
EXTT2=
EXTT3=
EXTT4=
EXTT5=
EXTT6=
EXTT7=
EXTT8=
EXTT9=
PLAYORDER=
